<svg xmlns="http://www.w3.org/2000/svg" xmlns:xlink="http://www.w3.org/1999/xlink" viewBox="0 0 66 66" fill="#fff" fill-rule="evenodd" stroke="#000" stroke-linecap="round" stroke-linejoin="round"><use xlink:href="#a" x=".5" y=".5"/><symbol id="a" overflow="visible"><g stroke="none" fill-rule="nonzero"><path d="M63.044 39.761c-4.277 17.106-21.619 27.56-38.803 23.283C7.135 58.767-3.319 41.425.958 24.241 5.235 7.135 22.577-3.319 39.761.958c17.106 4.277 27.56 21.619 23.283 38.803z" fill="#f7931a"/><path d="M46.097 27.408c.634-4.276-2.613-6.573-7.048-8.077l1.425-5.78-3.484-.87-1.425 5.623c-.95-.238-1.9-.475-2.85-.634l1.425-5.623-3.484-.87-1.425 5.78c-.792-.158-1.505-.317-2.217-.554l-4.83-1.188-.95 3.722 2.534.634c1.425.317 1.663 1.267 1.663 2.06l-1.666 6.57c.08 0 .238.08.396.08-.08 0-.238-.08-.396-.08l-2.297 9.186c-.158.396-.634 1.1-1.584.87 0 .08-2.534-.634-2.534-.634l-1.742 4.04 4.593 1.1c.87.238 1.663.475 2.534.634l-1.425 5.86 3.484.87 1.425-5.78 2.782.724-1.425 5.78 3.484.87 1.425-5.86c6.018 1.1 10.453.713 12.354-4.75 1.505-4.355-.08-6.9-3.247-8.553 2.376-.475 4.04-1.98 4.514-5.147zm-7.998 11.323c-1.1 4.355-8.394 1.98-10.77 1.425l1.9-7.76c2.376.554 9.978 1.742 8.87 6.335zm1.1-11.324c-.95 3.96-7.127 1.98-9.107 1.425l1.742-7.048c1.98.554 8.394 1.425 7.365 5.623z"/></g></symbol></svg>