<svg xmlns="http://www.w3.org/2000/svg" xmlns:xlink="http://www.w3.org/1999/xlink" viewBox="0 0 66 33" fill="#fff" fill-rule="evenodd" stroke="#000" stroke-linecap="round" stroke-linejoin="round"><use xlink:href="#a" x=".5" y=".5"/><symbol id="a" overflow="visible"><g stroke="none" fill-rule="nonzero"><path d="m28.012 26.389 3.54 1.65-1.77-2.545zM0 14.129l8.545 3.592L11.572.001z" fill="#346fad"/><path d="m8.545 17.721 3.638 1.57 7.63-7.9-8.24-11.38z" fill="#233a74"/><path d="m19.812 11.379 2.83 3.968 2.03-7.316-1.06-.664z" fill="#0d5296"/><path d="m12.183 19.289 8.324 3.678 2.136-7.62-2.83-3.968z" fill="#203e79"/><path d="m7.44 24.112 10.704 7.2 2.363-8.345-8.325-3.678zM23.615 7.356l1.06.664.682-2.628z" fill="#368ab7"/><path d="m28.012 26.389-7.505-3.422-2.363 8.345z" fill="#3399c2"/><path d="m20.507 22.956 7.505 3.422 1.77-.896-7.14-10.146z" fill="#1d4481"/><path d="m22.643 15.356 7.14 10.146 12.094-6.222L24.675 8.04z" fill="#0a5ca2"/><path d="M41.877 19.271 25.357 5.403l-.682 2.628z" fill="#3399c2"/><path d="m12.183 19.289-3.638-1.57-1.105 6.392z" fill="#3e7cb1"/><path d="M23.615 7.37 11.572 0l8.24 11.38zm7.938 20.672 10.325-8.766-12.094 6.222z" fill="#3f96d2"/><path d="m49.28 22.498 8.68 6.08-5.945-9.828zM32.137 11.092 43.93 5.636l-1.542-2.472z" fill="#e78825"/><path d="m32.137 11.092 16.284 10.82 1.395-6.742-5.884-9.535z" fill="#cd6628"/><path d="m47.916 24.342.505-2.43-16.284-10.82zm-2.532-19.4 5.806 3.53 1.42-6.96z" fill="#f0c918"/><path d="m49.815 15.171 2.188 3.58 4.865-6.748-5.678-3.52z" fill="#bf2926"/><path d="m47.916 24.342 1.354-1.844-.85-.586zm3.274-15.86 5.678 3.52 2.66-3.742-6.918-6.737z" fill="#f3a620"/><path d="m43.93 5.636 5.884 9.535 1.375-6.7-5.807-3.53z" fill="#b22f24"/><path d="M57.948 28.579 64 16.523l-4.87-3.1zM43.93 5.636l1.453-.683-2.994-1.8z" fill="#ca3928"/><path d="m59.128 13.424.4-5.163-2.66 3.742z" fill="#d75a28"/><path d="m52.003 18.751 5.945 9.828 1.18-15.155-2.26-1.422z" fill="#a81e22"/><path d="m48.42 21.913.85.586 2.733-3.748-2.188-3.58z" fill="#db5926"/></g></symbol></svg>